<!--?xml version="1.0" encoding="utf-8"?-->
<!-- Generator: Adobe Illustrator 18.0.0, SVG Export Plug-In . SVG Version: 6.00 Build 0)  -->

<svg version="1.1" id="_x32_" xmlns="http://www.w3.org/2000/svg" xmlns:xlink="http://www.w3.org/1999/xlink" x="0px" y="0px" viewBox="0 0 512 512" style="width: 64px; height: 64px; opacity: 1;" xml:space="preserve">
<style type="text/css">
	.st0{fill:#4B4B4B;}
</style>
<g>
	<path class="st0" d="M487.592,8.508V8.492H383.307l-21.748,82.682H0l51.516,196.211h0.348h257.998l-10.002,37.986H61.838
		l12.879,49.052H337.73l83.387-316.877h65.98c0.121,0.002,0.234,0.035,0.358,0.035c13.554,0,24.545-10.99,24.545-24.545
		C512,19.529,501.082,8.582,487.592,8.508z M89.359,238.332l-25.808-98.108h285.07l-25.811,98.108H89.359z" style="fill: rgb(25, 25, 25);"></path>
	<path class="st0" d="M107.363,400.649c-28.355,0-51.426,23.07-51.426,51.43c0,28.36,23.07,51.43,51.426,51.43
		c28.328,0,51.375-23.07,51.375-51.43C158.738,423.719,135.692,400.649,107.363,400.649z" style="fill: rgb(25, 25, 25);"></path>
	<path class="st0" d="M295.496,400.649c-28.359,0-51.43,23.07-51.43,51.43c0,28.36,23.07,51.43,51.43,51.43
		c28.328,0,51.375-23.07,51.375-51.43C346.871,423.719,323.824,400.649,295.496,400.649z" style="fill: rgb(25, 25, 25);"></path>
</g>
</svg>
