<?xml version="1.0" encoding="UTF-8"?>
<svg id="_レイヤー_2" data-name="レイヤー_2" xmlns="http://www.w3.org/2000/svg" viewBox="0 0 64.16 9.12">
  <defs>
    <style>
      .cls-1 {
        fill: #fff;
      }
    </style>
  </defs>
  <g id="_レイヤー_1-2" data-name="レイヤー_1">
    <g>
      <path class="cls-1" d="M2.46,8.96c-.06,0-.08-.05-.08-.16,0-.09.03-.13.08-.13h.16c.67,0,1.01-.32,1.01-.97V1.24c0-.52-.3-.78-.89-.78-.05,0-.13,0-.24.02-.38.06-.79.25-1.23.55s-.76.61-.98.92c-.03.06-.07.08-.12.08-.02,0-.05,0-.08-.02-.06-.03-.08-.07-.08-.11v-.04s.01-.07.04-.12L.64.19s.05-.07.11-.07h7.34c.06,0,.1.02.11.07.11.29.23.59.34.9.12.31.2.55.26.71.02.05.04.08.04.1,0,.04-.04.08-.11.11-.03.02-.06.02-.07.02-.04,0-.08-.03-.11-.08-.22-.31-.54-.62-.98-.92s-.85-.48-1.22-.55c-.11-.02-.2-.02-.25-.02-.58,0-.88.26-.88.78v6.47c0,.38.09.63.28.77.18.14.43.2.73.2h.14c.06,0,.08.04.08.13,0,.1-.03.16-.08.16h-3.9Z"/>
      <path class="cls-1" d="M11.83,8.66c-.1-.05-.2-.07-.3-.07-.1,0-.21.03-.32.1s-.23.16-.37.29c-.03.03-.06.04-.08.04-.02,0-.04-.03-.05-.07l-.52-2.22-.02-.11s.01-.03.03-.05.04-.03.06-.04c.02,0,.03-.02.04-.02.02,0,.04-.01.07-.01s.08.03.13.1c.9,1.36,1.98,2.04,3.25,2.04.51,0,.94-.13,1.29-.4.35-.26.52-.66.52-1.18,0-.61-.33-1.06-1-1.36-.33-.14-.77-.3-1.32-.48-.07-.02-.25-.08-.54-.18-.29-.1-.54-.2-.77-.31-.94-.48-1.42-1.2-1.42-2.16,0-.36.08-.74.25-1.13s.46-.73.88-1.01c.42-.28.98-.43,1.67-.43.25,0,.49.03.73.08s.52.14.86.25c.13.05.24.07.34.07.19,0,.38-.1.58-.3.06-.06.11-.06.13.02l.58,1.94v.02c.03.06.02.1,0,.12-.02.02-.04.03-.08.05-.05.02-.08.02-.11.02-.04,0-.08-.02-.12-.07-.1-.16-.27-.38-.52-.65s-.58-.54-1-.78c-.42-.24-.89-.37-1.41-.37-.46,0-.82.1-1.07.29-.25.2-.41.41-.49.63-.08.22-.12.42-.12.58,0,.51.26.91.79,1.19.17.09.39.18.67.28.28.1.56.2.85.29.67.22,1.18.4,1.51.55.57.27.97.6,1.21.99.24.39.36.81.36,1.25,0,.5-.12.94-.37,1.34-.24.4-.6.72-1.07.95-.47.23-1.04.35-1.69.35-.6,0-1.28-.15-2.05-.46Z"/>
      <path class="cls-1" d="M20.84,8.37c-.56-.5-.85-1.23-.85-2.2V1.38c0-.38-.09-.63-.28-.76-.19-.13-.43-.2-.74-.2h-.16c-.06,0-.08-.05-.08-.16,0-.1.03-.14.08-.14h3.89c.06,0,.08.05.08.14,0,.1-.03.16-.08.16h-.14c-.31,0-.56.07-.74.2-.18.13-.27.39-.27.76v4.32c0,.53.04,1,.13,1.42.09.42.29.78.6,1.08.31.3.78.46,1.4.46.9,0,1.52-.3,1.85-.91.33-.61.49-1.37.49-2.29V1.49c0-.34-.11-.6-.32-.79-.22-.19-.45-.29-.71-.29h-.12c-.06,0-.08-.05-.08-.14s.03-.14.08-.14h2.8c.06,0,.08.05.08.14s-.03.14-.08.14h-.12c-.26,0-.49.1-.71.29-.22.19-.32.46-.32.79l-.02,4.31c0,1.06-.26,1.88-.77,2.46-.51.58-1.24.86-2.17.86-1.25,0-2.15-.25-2.72-.75Z"/>
      <path class="cls-1" d="M38.95,8.82c0,.1-.03.14-.08.14h-4.02c-.06,0-.08-.05-.08-.14,0-.1.03-.16.08-.16.26,0,.45-.03.58-.08.13-.06.2-.15.2-.28,0-.14-.09-.33-.28-.59l-1.34-1.74-1-1.28-.42.43-.34.35v2.23c0,.38.09.63.28.76.18.13.43.2.73.2h.14c.06,0,.08.05.08.14,0,.1-.03.16-.08.16h-3.89c-.06,0-.08-.05-.08-.16,0-.1.03-.14.08-.14h.16c.3,0,.55-.07.73-.2.18-.14.27-.39.27-.76V1.38c0-.38-.09-.63-.28-.76-.18-.13-.42-.2-.72-.2h-.16c-.06,0-.08-.05-.08-.16,0-.1.03-.14.08-.14h3.89c.06,0,.1.05.1.14,0,.1-.03.16-.1.16h-.14c-.31,0-.56.07-.74.2-.18.13-.27.39-.27.76v3.46c.64-.67,1.31-1.38,2.02-2.14.71-.75,1.14-1.22,1.29-1.39.12-.14.18-.28.18-.4,0-.15-.08-.27-.25-.37s-.4-.14-.68-.14c-.06,0-.08-.05-.08-.16,0-.09.03-.13.08-.13h3.54c.06,0,.1.04.1.13,0,.1-.03.16-.1.16-.74,0-1.43.3-2.06.91-.12.1-.77.77-1.94,1.99l-.22.22.62.83c1.29,1.74,2.09,2.81,2.4,3.19.25.31.44.54.58.68.14.14.3.25.47.32.18.08.4.11.66.11.06,0,.08.05.08.16Z"/>
      <path class="cls-1" d="M40.79,8.96c-.06,0-.08-.05-.08-.16,0-.09.03-.13.08-.13h.14c.3,0,.55-.07.73-.2.18-.14.28-.39.28-.76V1.38c.01-.38-.08-.63-.27-.76-.19-.13-.43-.2-.74-.2h-.14c-.06,0-.08-.05-.08-.16,0-.1.03-.14.08-.14h3.89c.06,0,.08.05.08.14,0,.1-.03.16-.08.16h-.14c-.31,0-.56.07-.74.2-.18.13-.27.39-.27.76v6.34c0,.38.09.63.28.76.18.13.43.2.73.2h.14c.06,0,.08.04.08.13,0,.1-.03.16-.08.16h-3.89Z"/>
      <path class="cls-1" d="M47.06,8.96c-.06,0-.08-.05-.08-.16,0-.09.03-.13.08-.13h.13c.26,0,.5-.1.71-.29.21-.19.32-.46.32-.8V1.12c0-.47-.34-.71-1.03-.71h-.13c-.06,0-.08-.05-.08-.14s.03-.14.08-.14h2.76c.06,0,.09.02.11.07l2.5,6.23L54.84.19s.05-.07.11-.07h2.7c.06,0,.08.05.08.14,0,.1-.03.16-.08.16h-.14c-.31,0-.56.07-.74.2-.18.13-.27.39-.27.76v6.32c-.01.38.08.63.26.77.18.14.43.2.74.2h.14c.06,0,.08.04.08.13,0,.1-.03.16-.08.16h-3.88s-.07-.05-.07-.16c0-.09.02-.13.07-.13h.17c.3,0,.54-.07.72-.21.18-.14.28-.39.28-.76V1.25l-2.94,7.64s-.05.07-.11.07h-.13c-.06,0-.09-.02-.11-.07l-2.94-7.46v6.16c0,.34.11.61.32.8.22.19.45.29.71.29h.12c.06,0,.08.04.08.13,0,.1-.03.16-.08.16h-2.8Z"/>
      <path class="cls-1" d="M60.19,8.96c-.06,0-.08-.05-.08-.16,0-.09.03-.13.08-.13h.14c.3,0,.55-.07.73-.2.18-.14.28-.39.28-.76V1.38c.01-.38-.08-.63-.27-.76-.19-.13-.43-.2-.74-.2h-.14c-.06,0-.08-.05-.08-.16,0-.1.03-.14.08-.14h3.89c.06,0,.08.05.08.14,0,.1-.03.16-.08.16h-.14c-.31,0-.56.07-.74.2-.18.13-.27.39-.27.76v6.34c0,.38.09.63.28.76.18.13.43.2.73.2h.14c.06,0,.08.04.08.13,0,.1-.03.16-.08.16h-3.89Z"/>
    </g>
  </g>
</svg>